<?xml version="1.0" standalone="no"?>
<!DOCTYPE svg PUBLIC "-//W3C//DTD SVG 20010904//EN"
 "http://www.w3.org/TR/2001/REC-SVG-20010904/DTD/svg10.dtd">
<svg version="1.0" xmlns="http://www.w3.org/2000/svg"
 width="328.000000pt" height="278.000000pt" viewBox="0 0 328.000000 278.000000"
 preserveAspectRatio="xMidYMid meet">

<g transform="translate(0.000000,278.000000) scale(0.100000,-0.100000)"
fill="#000000" stroke="none">
<path d="M2686 2488 c-2 -7 -9 -55 -15 -106 -27 -222 -136 -394 -305 -483 -34
-18 -63 -33 -65 -35 -2 -2 30 -56 72 -121 222 -350 387 -776 418 -1075 14
-128 2 -252 -29 -313 -14 -28 -14 -29 2 -16 26 22 72 119 90 188 9 34 16 95
16 137 0 42 4 76 8 76 16 0 57 -52 75 -93 l18 -42 -6 89 c-10 157 -59 310
-144 451 -35 58 -38 65 -20 65 23 0 99 -67 142 -125 41 -55 29 -18 -35 113
-59 120 -121 218 -230 361 -43 57 -77 105 -75 107 2 2 69 -29 148 -69 223
-114 381 -157 447 -123 80 41 64 129 -35 197 -91 63 -295 138 -496 182 -38 9
-71 18 -74 20 -3 3 13 36 36 74 86 145 121 298 100 431 -7 41 -17 79 -24 85
-6 7 -10 18 -7 25 2 6 1 12 -2 12 -4 0 -8 -6 -10 -12z"/>
<path d="M597 2334 c-15 -90 4 -242 42 -329 5 -11 15 -36 22 -55 7 -19 21 -47
31 -63 11 -15 18 -34 16 -43 -2 -12 -67 -38 -214 -88 -200 -69 -389 -152 -444
-195 -24 -19 -24 -22 -10 -48 23 -41 56 -55 120 -49 105 10 324 98 495 201 33
19 75 43 93 52 17 9 32 20 32 25 0 4 7 8 17 8 18 0 90 39 140 77 20 14 30 29
27 38 -3 8 -34 30 -68 49 -126 70 -226 210 -262 364 -21 90 -30 103 -37 56z"/>
<path d="M1497 1866 c-153 -63 -247 -199 -255 -369 -5 -98 16 -176 69 -253 28
-41 92 -103 125 -122 10 -6 17 -12 14 -14 -3 -2 -57 -14 -120 -26 -107 -22
-256 -70 -246 -80 3 -2 42 1 88 7 271 35 691 38 923 6 131 -18 132 -18 119 -6
-17 18 -188 70 -271 83 -46 7 -83 15 -83 19 0 3 12 12 26 20 37 20 112 105
138 159 36 72 49 132 44 212 -11 172 -115 313 -274 369 -81 29 -221 26 -297
-5z m391 -148 c58 -63 40 -231 -29 -268 -96 -52 -160 112 -94 241 28 53 86 65
123 27z"/>
<path d="M2455 1129 c17 -4 41 -18 53 -30 32 -29 38 -18 8 14 -18 19 -34 27
-58 26 l-33 -1 30 -9z"/>
<path d="M2412 1041 c-75 -49 -86 -72 -77 -161 12 -111 12 -115 -10 -118 -11
-1 -63 15 -115 37 l-95 38 -36 -18 c-44 -22 -89 -73 -90 -102 0 -12 0 -44 1
-71 3 -78 -26 -84 -137 -30 -66 33 -79 36 -138 32 -78 -5 -105 -22 -158 -101
-21 -32 -42 -57 -47 -57 -12 0 -38 36 -80 110 -43 78 -73 99 -147 106 -46 4
-63 2 -84 -13 -15 -10 -45 -31 -69 -47 -63 -45 -74 -33 -80 92 -3 57 -10 106
-17 113 -16 16 -174 34 -206 23 l-26 -9 20 -54 c68 -193 209 -341 395 -413
197 -76 420 -75 693 3 251 72 437 222 516 418 34 83 56 178 53 223 l-3 39 -63
-40z"/>
<path d="M769 911 c-16 -16 -29 -35 -29 -43 0 -7 10 0 23 16 13 15 36 34 53
41 27 12 27 13 6 14 -13 1 -36 -12 -53 -28z"/>
<path d="M410 584 c0 -20 32 -120 52 -159 55 -110 183 -226 316 -286 75 -34
226 -83 302 -97 30 -6 82 -16 115 -23 33 -6 175 -13 315 -15 l255 -3 -138 24
c-335 57 -630 167 -805 300 -40 31 -72 51 -72 46 0 -14 186 -201 200 -201 6 0
9 -4 5 -9 -3 -6 -34 0 -73 14 -226 78 -362 188 -442 356 -16 35 -30 59 -30 53z"/>
<path d="M2040 359 c-44 -18 -243 -56 -358 -69 -61 -7 -167 -11 -236 -8 -138
4 -142 -1 -22 -27 104 -23 307 -16 413 14 83 24 224 78 238 92 12 12 -2 11
-35 -2z"/>
</g>
</svg>
